<mxfile host="app.diagrams.net" agent="Mozilla/5.0 (Windows NT 10.0; Win64; x64) AppleWebKit/537.36 (KHTML, like Gecko) Chrome/134.0.0.0 Safari/537.36" version="26.1.1">
  <diagram name="Page-1" id="8H3ZNJtWHq10Ec6DlwLZ">
    <mxGraphModel dx="778" dy="393" grid="1" gridSize="10" guides="1" tooltips="1" connect="1" arrows="1" fold="1" page="1" pageScale="1" pageWidth="850" pageHeight="1100" math="0" shadow="0">
      <root>
        <mxCell id="0" />
        <mxCell id="1" parent="0" />
        <mxCell id="HOmhj5fF31oZR5m_osH5-2" value="" style="swimlane;startSize=0;" vertex="1" parent="1">
          <mxGeometry x="520" y="40" width="190" height="350" as="geometry">
            <mxRectangle x="40" y="30" width="160" height="220" as="alternateBounds" />
          </mxGeometry>
        </mxCell>
        <mxCell id="HOmhj5fF31oZR5m_osH5-3" value="" style="endArrow=none;html=1;rounded=0;" edge="1" parent="HOmhj5fF31oZR5m_osH5-2">
          <mxGeometry width="50" height="50" relative="1" as="geometry">
            <mxPoint y="30" as="sourcePoint" />
            <mxPoint x="180" y="30" as="targetPoint" />
          </mxGeometry>
        </mxCell>
        <mxCell id="HOmhj5fF31oZR5m_osH5-5" value="Community Centre" style="text;html=1;align=center;verticalAlign=middle;resizable=0;points=[];autosize=1;strokeColor=none;fillColor=none;" vertex="1" parent="HOmhj5fF31oZR5m_osH5-2">
          <mxGeometry x="30" width="120" height="30" as="geometry" />
        </mxCell>
        <mxCell id="HOmhj5fF31oZR5m_osH5-7" value="Network with your peers" style="text;whiteSpace=wrap;html=1;" vertex="1" parent="HOmhj5fF31oZR5m_osH5-2">
          <mxGeometry x="10" y="40" width="120" height="40" as="geometry" />
        </mxCell>
        <mxCell id="HOmhj5fF31oZR5m_osH5-14" value="&lt;p data-pm-slice=&quot;1 1 [&amp;quot;list&amp;quot;,{&amp;quot;spread&amp;quot;:false,&amp;quot;start&amp;quot;:2629,&amp;quot;end&amp;quot;:2700},&amp;quot;regular_list_item&amp;quot;,{&amp;quot;start&amp;quot;:2629,&amp;quot;end&amp;quot;:2655}]&quot;&gt;Forums by Country / Exam&lt;/p&gt;" style="rounded=0;whiteSpace=wrap;html=1;" vertex="1" parent="HOmhj5fF31oZR5m_osH5-2">
          <mxGeometry x="15" y="160" width="160" height="20" as="geometry" />
        </mxCell>
        <mxCell id="HOmhj5fF31oZR5m_osH5-16" value="" style="strokeWidth=2;html=1;shape=mxgraph.flowchart.start_2;whiteSpace=wrap;" vertex="1" parent="HOmhj5fF31oZR5m_osH5-2">
          <mxGeometry x="15" y="270" width="40" height="40" as="geometry" />
        </mxCell>
        <mxCell id="HOmhj5fF31oZR5m_osH5-21" value="&lt;span style=&quot;font-size: 10px;&quot;&gt;Book meeting with you&lt;/span&gt;&lt;div&gt;&lt;span style=&quot;font-size: 10px;&quot;&gt;Mentor&lt;/span&gt;&lt;/div&gt;" style="text;html=1;align=center;verticalAlign=middle;resizable=0;points=[];autosize=1;strokeColor=none;fillColor=none;" vertex="1" parent="HOmhj5fF31oZR5m_osH5-2">
          <mxGeometry x="60" y="265" width="120" height="40" as="geometry" />
        </mxCell>
        <mxCell id="HOmhj5fF31oZR5m_osH5-84" value="" style="ellipse;whiteSpace=wrap;html=1;" vertex="1" parent="HOmhj5fF31oZR5m_osH5-2">
          <mxGeometry x="55" y="70" width="70" height="50" as="geometry" />
        </mxCell>
        <mxCell id="HOmhj5fF31oZR5m_osH5-87" value="Build Connections" style="rounded=0;whiteSpace=wrap;html=1;" vertex="1" parent="HOmhj5fF31oZR5m_osH5-2">
          <mxGeometry x="15" y="130" width="160" height="20" as="geometry" />
        </mxCell>
        <mxCell id="HOmhj5fF31oZR5m_osH5-88" value="&lt;p data-pm-slice=&quot;1 1 [&amp;quot;list&amp;quot;,{&amp;quot;spread&amp;quot;:false,&amp;quot;start&amp;quot;:2629,&amp;quot;end&amp;quot;:2700},&amp;quot;regular_list_item&amp;quot;,{&amp;quot;start&amp;quot;:2629,&amp;quot;end&amp;quot;:2655}]&quot;&gt;&lt;span id=&quot;docs-internal-guid-7741fd21-7fff-1cc0-1f47-bbd72c0974af&quot;&gt;&lt;span style=&quot;background-color: transparent; font-variant-numeric: normal; font-variant-east-asian: normal; font-variant-alternates: normal; font-variant-position: normal; font-variant-emoji: normal; vertical-align: baseline; white-space-collapse: preserve;&quot;&gt;&lt;font style=&quot;font-size: 12px;&quot; face=&quot;Helvetica&quot;&gt;Trending Questions&lt;/font&gt;&lt;/span&gt;&lt;/span&gt;&lt;/p&gt;" style="rounded=0;whiteSpace=wrap;html=1;" vertex="1" parent="HOmhj5fF31oZR5m_osH5-2">
          <mxGeometry x="15" y="190" width="160" height="20" as="geometry" />
        </mxCell>
        <mxCell id="HOmhj5fF31oZR5m_osH5-89" value="&lt;p data-pm-slice=&quot;1 1 [&amp;quot;list&amp;quot;,{&amp;quot;spread&amp;quot;:false,&amp;quot;start&amp;quot;:2629,&amp;quot;end&amp;quot;:2700},&amp;quot;regular_list_item&amp;quot;,{&amp;quot;start&amp;quot;:2629,&amp;quot;end&amp;quot;:2655}]&quot;&gt;&lt;span id=&quot;docs-internal-guid-7741fd21-7fff-1cc0-1f47-bbd72c0974af&quot;&gt;&lt;span style=&quot;background-color: transparent; font-variant-numeric: normal; font-variant-east-asian: normal; font-variant-alternates: normal; font-variant-position: normal; font-variant-emoji: normal; vertical-align: baseline; white-space-collapse: preserve;&quot;&gt;&lt;font style=&quot;font-size: 12px;&quot; face=&quot;Helvetica&quot;&gt;Post a Question&lt;/font&gt;&lt;/span&gt;&lt;/span&gt;&lt;/p&gt;" style="rounded=0;whiteSpace=wrap;html=1;" vertex="1" parent="HOmhj5fF31oZR5m_osH5-2">
          <mxGeometry x="15" y="220" width="160" height="20" as="geometry" />
        </mxCell>
        <mxCell id="HOmhj5fF31oZR5m_osH5-50" value="" style="swimlane;startSize=0;" vertex="1" parent="1">
          <mxGeometry x="290" y="40" width="215" height="350" as="geometry">
            <mxRectangle x="40" y="30" width="160" height="220" as="alternateBounds" />
          </mxGeometry>
        </mxCell>
        <mxCell id="HOmhj5fF31oZR5m_osH5-51" value="" style="endArrow=none;html=1;rounded=0;entryX=1.016;entryY=0.09;entryDx=0;entryDy=0;entryPerimeter=0;" edge="1" parent="HOmhj5fF31oZR5m_osH5-50" target="HOmhj5fF31oZR5m_osH5-50">
          <mxGeometry width="50" height="50" relative="1" as="geometry">
            <mxPoint y="30" as="sourcePoint" />
            <mxPoint x="180" y="30" as="targetPoint" />
          </mxGeometry>
        </mxCell>
        <mxCell id="HOmhj5fF31oZR5m_osH5-52" value="AI SOP Checker" style="text;html=1;align=center;verticalAlign=middle;resizable=0;points=[];autosize=1;strokeColor=none;fillColor=none;" vertex="1" parent="HOmhj5fF31oZR5m_osH5-50">
          <mxGeometry x="-5" y="30" width="110" height="30" as="geometry" />
        </mxCell>
        <mxCell id="HOmhj5fF31oZR5m_osH5-55" value="Find Scholarship&amp;nbsp;" style="rounded=0;whiteSpace=wrap;html=1;" vertex="1" parent="HOmhj5fF31oZR5m_osH5-50">
          <mxGeometry x="20" y="180" width="70" height="60" as="geometry" />
        </mxCell>
        <mxCell id="HOmhj5fF31oZR5m_osH5-56" value="Upload SOP" style="rounded=0;whiteSpace=wrap;html=1;" vertex="1" parent="HOmhj5fF31oZR5m_osH5-50">
          <mxGeometry x="20" y="120" width="160" height="20" as="geometry" />
        </mxCell>
        <mxCell id="HOmhj5fF31oZR5m_osH5-57" value="" style="strokeWidth=2;html=1;shape=mxgraph.flowchart.start_2;whiteSpace=wrap;" vertex="1" parent="HOmhj5fF31oZR5m_osH5-50">
          <mxGeometry x="10" y="260" width="50" height="50" as="geometry" />
        </mxCell>
        <mxCell id="HOmhj5fF31oZR5m_osH5-60" value="&lt;span style=&quot;font-size: 10px;&quot;&gt;Visa&amp;nbsp;&lt;/span&gt;&lt;div&gt;&lt;span style=&quot;font-size: 10px;&quot;&gt;Preprations&lt;/span&gt;&lt;/div&gt;" style="text;html=1;align=center;verticalAlign=middle;resizable=0;points=[];autosize=1;strokeColor=none;fillColor=none;" vertex="1" parent="HOmhj5fF31oZR5m_osH5-50">
          <mxGeometry y="310" width="70" height="40" as="geometry" />
        </mxCell>
        <mxCell id="HOmhj5fF31oZR5m_osH5-77" value="" style="ellipse;whiteSpace=wrap;html=1;" vertex="1" parent="HOmhj5fF31oZR5m_osH5-50">
          <mxGeometry x="60" y="60" width="70" height="50" as="geometry" />
        </mxCell>
        <mxCell id="HOmhj5fF31oZR5m_osH5-78" value="Check SOP Score" style="rounded=0;whiteSpace=wrap;html=1;" vertex="1" parent="HOmhj5fF31oZR5m_osH5-50">
          <mxGeometry x="20" y="150" width="160" height="20" as="geometry" />
        </mxCell>
        <mxCell id="HOmhj5fF31oZR5m_osH5-79" value="Check Expenses by country" style="rounded=0;whiteSpace=wrap;html=1;" vertex="1" parent="HOmhj5fF31oZR5m_osH5-50">
          <mxGeometry x="100" y="180" width="70" height="60" as="geometry" />
        </mxCell>
        <mxCell id="HOmhj5fF31oZR5m_osH5-80" value="Tools&amp;nbsp;" style="text;html=1;align=center;verticalAlign=middle;resizable=0;points=[];autosize=1;strokeColor=none;fillColor=none;" vertex="1" parent="HOmhj5fF31oZR5m_osH5-50">
          <mxGeometry x="75" width="50" height="30" as="geometry" />
        </mxCell>
        <mxCell id="HOmhj5fF31oZR5m_osH5-81" value="Modules" style="rounded=0;whiteSpace=wrap;html=1;" vertex="1" parent="HOmhj5fF31oZR5m_osH5-50">
          <mxGeometry x="83" y="250" width="105" height="20" as="geometry" />
        </mxCell>
        <mxCell id="HOmhj5fF31oZR5m_osH5-83" value="Reminders" style="rounded=0;whiteSpace=wrap;html=1;" vertex="1" parent="HOmhj5fF31oZR5m_osH5-50">
          <mxGeometry x="83" y="310" width="105" height="20" as="geometry" />
        </mxCell>
        <mxCell id="HOmhj5fF31oZR5m_osH5-82" value="Mock Interviews" style="rounded=0;whiteSpace=wrap;html=1;" vertex="1" parent="HOmhj5fF31oZR5m_osH5-50">
          <mxGeometry x="83" y="280" width="105" height="20" as="geometry" />
        </mxCell>
        <mxCell id="HOmhj5fF31oZR5m_osH5-63" value="" style="swimlane;startSize=0;" vertex="1" parent="1">
          <mxGeometry x="70" y="40" width="190" height="350" as="geometry">
            <mxRectangle x="40" y="30" width="160" height="220" as="alternateBounds" />
          </mxGeometry>
        </mxCell>
        <mxCell id="HOmhj5fF31oZR5m_osH5-64" value="" style="endArrow=none;html=1;rounded=0;entryX=1.007;entryY=0.089;entryDx=0;entryDy=0;entryPerimeter=0;" edge="1" parent="HOmhj5fF31oZR5m_osH5-63" target="HOmhj5fF31oZR5m_osH5-63">
          <mxGeometry width="50" height="50" relative="1" as="geometry">
            <mxPoint y="30" as="sourcePoint" />
            <mxPoint x="180" y="30" as="targetPoint" />
          </mxGeometry>
        </mxCell>
        <mxCell id="HOmhj5fF31oZR5m_osH5-65" value="Sumit&#39;s Dashboard" style="text;html=1;align=center;verticalAlign=middle;resizable=0;points=[];autosize=1;strokeColor=none;fillColor=none;" vertex="1" parent="HOmhj5fF31oZR5m_osH5-63">
          <mxGeometry x="30" width="120" height="30" as="geometry" />
        </mxCell>
        <mxCell id="HOmhj5fF31oZR5m_osH5-66" value="" style="verticalLabelPosition=bottom;verticalAlign=top;html=1;shape=mxgraph.basic.partConcEllipse;startAngle=0.25;endAngle=0.1;arcWidth=0.5;fillColor=#f8cecc;strokeColor=#b85450;" vertex="1" parent="HOmhj5fF31oZR5m_osH5-63">
          <mxGeometry x="40" y="70" width="100" height="70" as="geometry" />
        </mxCell>
        <mxCell id="HOmhj5fF31oZR5m_osH5-67" value="Journey Progress" style="text;whiteSpace=wrap;html=1;" vertex="1" parent="HOmhj5fF31oZR5m_osH5-63">
          <mxGeometry x="10" y="40" width="120" height="40" as="geometry" />
        </mxCell>
        <mxCell id="HOmhj5fF31oZR5m_osH5-68" value="Today&#39;s task" style="rounded=0;whiteSpace=wrap;html=1;" vertex="1" parent="HOmhj5fF31oZR5m_osH5-63">
          <mxGeometry x="10" y="170" width="70" height="60" as="geometry" />
        </mxCell>
        <mxCell id="HOmhj5fF31oZR5m_osH5-69" value="Daily Streaks" style="rounded=0;whiteSpace=wrap;html=1;" vertex="1" parent="HOmhj5fF31oZR5m_osH5-63">
          <mxGeometry x="10" y="240" width="160" height="20" as="geometry" />
        </mxCell>
        <mxCell id="HOmhj5fF31oZR5m_osH5-70" value="" style="strokeWidth=2;html=1;shape=mxgraph.flowchart.start_2;whiteSpace=wrap;" vertex="1" parent="HOmhj5fF31oZR5m_osH5-63">
          <mxGeometry x="10" y="270" width="30" height="30" as="geometry" />
        </mxCell>
        <mxCell id="HOmhj5fF31oZR5m_osH5-71" value="" style="strokeWidth=2;html=1;shape=mxgraph.flowchart.start_2;whiteSpace=wrap;" vertex="1" parent="HOmhj5fF31oZR5m_osH5-63">
          <mxGeometry x="130" y="270" width="30" height="30" as="geometry" />
        </mxCell>
        <mxCell id="HOmhj5fF31oZR5m_osH5-72" value="" style="strokeWidth=2;html=1;shape=mxgraph.flowchart.start_2;whiteSpace=wrap;" vertex="1" parent="HOmhj5fF31oZR5m_osH5-63">
          <mxGeometry x="70" y="270" width="30" height="30" as="geometry" />
        </mxCell>
        <mxCell id="HOmhj5fF31oZR5m_osH5-73" value="&lt;font style=&quot;font-size: 10px;&quot;&gt;Explore&amp;nbsp;&lt;/font&gt;&lt;div&gt;&lt;font style=&quot;font-size: 10px;&quot;&gt;Countries&lt;/font&gt;&lt;/div&gt;" style="text;html=1;align=center;verticalAlign=middle;resizable=0;points=[];autosize=1;strokeColor=none;fillColor=none;" vertex="1" parent="HOmhj5fF31oZR5m_osH5-63">
          <mxGeometry x="-10" y="300" width="70" height="40" as="geometry" />
        </mxCell>
        <mxCell id="HOmhj5fF31oZR5m_osH5-74" value="&lt;font style=&quot;font-size: 10px;&quot;&gt;Explore&amp;nbsp;&lt;/font&gt;&lt;div&gt;&lt;font style=&quot;font-size: 10px;&quot;&gt;Courses&lt;/font&gt;&lt;/div&gt;" style="text;html=1;align=center;verticalAlign=middle;resizable=0;points=[];autosize=1;strokeColor=none;fillColor=none;" vertex="1" parent="HOmhj5fF31oZR5m_osH5-63">
          <mxGeometry x="55" y="300" width="60" height="40" as="geometry" />
        </mxCell>
        <mxCell id="HOmhj5fF31oZR5m_osH5-75" value="&lt;font style=&quot;font-size: 10px;&quot;&gt;Explore&amp;nbsp;&lt;/font&gt;&lt;div&gt;&lt;font style=&quot;font-size: 10px;&quot;&gt;Communites&lt;/font&gt;&lt;/div&gt;" style="text;html=1;align=center;verticalAlign=middle;resizable=0;points=[];autosize=1;strokeColor=none;fillColor=none;" vertex="1" parent="HOmhj5fF31oZR5m_osH5-63">
          <mxGeometry x="105" y="300" width="80" height="40" as="geometry" />
        </mxCell>
      </root>
    </mxGraphModel>
  </diagram>
</mxfile>
